<svg xmlns="http://www.w3.org/2000/svg" viewBox="0 0 1000 1000" width="1000" height="1000" role="img">
  <style>@import url('https://fonts.googleapis.com/css2?family=Space+Grotesk:wght@500;700&amp;family=Space+Mono&amp;display=swap');</style>

  <defs>
    <radialGradient id="bg" cx="50%" cy="32%" r="80%">
      <stop offset="0%" stop-color="#001E38"/>
      <stop offset="60%" stop-color="#001E38"/>
      <stop offset="100%" stop-color="#00111E"/>
    </radialGradient>
    <radialGradient id="halo" cx="50%" cy="34%" r="48%">
      <stop offset="0%" stop-color="#0A70FC" stop-opacity="0.20"/>
      <stop offset="100%" stop-color="#0A70FC" stop-opacity="0"/>
    </radialGradient>
    <filter id="glow" x="-120%" y="-120%" width="340%" height="340%">
      <feGaussianBlur stdDeviation="9" result="b"/><feMerge><feMergeNode in="b"/><feMergeNode in="SourceGraphic"/></feMerge>
    </filter>
    <pattern id="grid" width="50" height="50" patternUnits="userSpaceOnUse">
      <path d="M50 0H0V50" fill="none" stroke="#0E3A63" stroke-width="1" opacity="0.28"/>
    </pattern>
  </defs>
  <rect width="1000" height="1000" fill="url(#bg)"/>
  <rect width="1000" height="1000" fill="url(#grid)"/>
  <rect width="1000" height="1000" fill="url(#halo)"/>
  <rect x="40" y="40" width="920" height="920" fill="none" stroke="#0E3A63" stroke-width="1.5" opacity="0.7"/>
  <path d="M40 66V40H66" fill="none" stroke="#0A70FC" stroke-width="3"/><path d="M960 66V40H934" fill="none" stroke="#0A70FC" stroke-width="3"/><path d="M40 934V960H66" fill="none" stroke="#0A70FC" stroke-width="3"/><path d="M960 934V960H934" fill="none" stroke="#0A70FC" stroke-width="3"/>
  
  <text x="62" y="120" font-family="'Space Mono', ui-monospace, 'SFMono-Regular', Menlo, monospace" font-size="58" fill="#FFFFFF" letter-spacing="2">06</text>
  <text x="150" y="120" font-family="'Space Mono', ui-monospace, 'SFMono-Regular', Menlo, monospace" font-size="22" fill="#9DB2C6" opacity="0.8">/ 06</text>
  <text x="938" y="116" text-anchor="end" font-family="'Space Mono', ui-monospace, 'SFMono-Regular', Menlo, monospace" font-size="20" fill="#049FF3" letter-spacing="3">THE MISSION</text>
  <line x1="62" y1="150" x2="938" y2="150" stroke="#0E3A63" stroke-width="1.5"/><g><path d="M62 250 L62 260 L70 259.84 L78 259.29 L86 258.37 L94 257.11 L102 255.58 L110 253.82 L118 251.9 L126 249.92 L134 247.93 L142 246.03 L150 244.28 L158 242.77 L166 241.54 L174 240.65 L182 240.13 L190 240.01 L198 240.28 L206 240.94 L214 241.96 L222 243.31 L230 244.92 L238 246.73 L246 248.67 L254 250.67 L262 252.64 L270 254.5 L278 256.18 L286 257.62 L294 258.76 L302 259.54 L310 259.95 L318 259.95 L326 259.57 L334 258.79 L342 257.67 L350 256.25 L358 254.57 L366 252.71 L374 250.75 L382 248.75 L390 246.8 L398 244.99 L406 243.37 L414 242.01 L422 240.98 L430 240.3 L438 240.01 L446 240.12 L454 240.62 L462 241.5 L470 242.71 L478 244.22 L486 245.96 L494 247.85 L502 249.84 L510 251.83 L518 253.74 L526 255.51 L534 257.06 L542 258.33 L550 259.26 L558 259.83 L566 260 L574 259.77 L582 259.16 L590 258.18 L598 256.87 L606 255.29 L614 253.5 L622 251.57 L630 249.58 L638 247.6 L646 245.72 L654 244.01 L662 242.54 L670 241.37 L678 240.54 L686 240.08 L694 240.03 L702 240.37 L710 241.09 L718 242.17 L726 243.56 L734 245.21 L742 247.05 L750 249.01 L758 251 L766 252.96 L774 254.8 L782 256.45 L790 257.84 L798 258.91 L806 259.64 L814 259.98 L822 259.92 L830 259.46 L838 258.63 L846 257.45 L854 255.98 L862 254.27 L870 252.39 L878 250.41 L886 248.42 L894 246.49 L902 244.7 L910 243.12 L918 241.81 L926 240.84 L934 240.22" fill="none" stroke="#049FF3" stroke-width="2" opacity="0.7"/><circle cx="904.9" cy="480.53" r="2.71" fill="#0A70FC" opacity="0.57"/><circle cx="349.15" cy="619.06" r="2.55" fill="#0A70FC" opacity="0.54"/><circle cx="662.76" cy="359.32" r="2.82" fill="#0A70FC" opacity="0.51"/><circle cx="770.16" cy="428.29" r="1.63" fill="#0A70FC" opacity="0.52"/><circle cx="652.61" cy="327.81" r="1.92" fill="#0A70FC" opacity="0.62"/><circle cx="585.44" cy="460.3" r="1.26" fill="#0A70FC" opacity="0.62"/><circle cx="388.95" cy="336.35" r="3.56" fill="#0A70FC" opacity="0.82"/><circle cx="757.51" cy="301.14" r="1.83" fill="#0A70FC" opacity="0.62"/><circle cx="725.22" cy="640.28" r="1.6" fill="#0A70FC" opacity="0.45"/><circle cx="383.12" cy="678.32" r="4" fill="#0A70FC" opacity="0.79"/><circle cx="784.73" cy="323.47" r="3.94" fill="#0A70FC" opacity="0.81"/><circle cx="661.31" cy="677.37" r="1.31" fill="#0A70FC" opacity="0.33"/><circle cx="243.04" cy="501.33" r="2.57" fill="#0A70FC" opacity="0.75"/><circle cx="739.76" cy="371.97" r="3.01" fill="#0A70FC" opacity="0.88"/><circle cx="660.76" cy="476.77" r="3.95" fill="#0A70FC" opacity="0.53"/><circle cx="734" cy="362.1" r="3.56" fill="#0A70FC" opacity="0.36"/><circle cx="791.72" cy="355.46" r="1.55" fill="#0A70FC" opacity="0.31"/><circle cx="539.43" cy="604" r="3.38" fill="#0A70FC" opacity="0.39"/><circle cx="258.07" cy="712.64" r="3.92" fill="#0A70FC" opacity="0.36"/><circle cx="832.92" cy="544.51" r="1.31" fill="#0A70FC" opacity="0.57"/><circle cx="312.37" cy="587.5" r="1.05" fill="#0A70FC" opacity="0.86"/><circle cx="700.14" cy="688.88" r="1.04" fill="#0A70FC" opacity="0.55"/><circle cx="517.05" cy="454.05" r="1.98" fill="#0A70FC" opacity="0.33"/><circle cx="92.26" cy="692.26" r="3" fill="#0A70FC" opacity="0.78"/><circle cx="734.41" cy="356.71" r="2.18" fill="#0A70FC" opacity="0.77"/><circle cx="137.44" cy="304.3" r="3.33" fill="#0A70FC" opacity="0.79"/><circle cx="248.19" cy="711.53" r="1.45" fill="#0A70FC" opacity="0.62"/><circle cx="862.32" cy="412.71" r="1.14" fill="#0A70FC" opacity="0.4"/><circle cx="788.67" cy="530.72" r="3.28" fill="#0A70FC" opacity="0.35"/><circle cx="694.33" cy="367.99" r="3.67" fill="#0A70FC" opacity="0.59"/><circle cx="390.21" cy="491.62" r="2.55" fill="#0A70FC" opacity="0.4"/><circle cx="477.94" cy="430.99" r="1.64" fill="#0A70FC" opacity="0.75"/><circle cx="196.27" cy="305.77" r="3.69" fill="#0A70FC" opacity="0.66"/><circle cx="86.47" cy="545.8" r="1.99" fill="#0A70FC" opacity="0.88"/><circle cx="705.11" cy="421" r="3.19" fill="#0A70FC" opacity="0.57"/><circle cx="677.8" cy="324.6" r="2.01" fill="#0A70FC" opacity="0.83"/><circle cx="106.8" cy="548.64" r="1.77" fill="#0A70FC" opacity="0.43"/><circle cx="493.41" cy="543.49" r="2.29" fill="#0A70FC" opacity="0.44"/><circle cx="613.27" cy="532.43" r="2.3" fill="#0A70FC" opacity="0.4"/><circle cx="126.58" cy="368.38" r="3.38" fill="#0A70FC" opacity="0.52"/><circle cx="599.7" cy="432.84" r="3.88" fill="#0A70FC" opacity="0.35"/><circle cx="664.08" cy="501.05" r="2.61" fill="#0A70FC" opacity="0.74"/><circle cx="893.51" cy="324.07" r="3.83" fill="#0A70FC" opacity="0.46"/><circle cx="167.49" cy="646.24" r="3.44" fill="#0A70FC" opacity="0.49"/><circle cx="269.32" cy="313.73" r="2.76" fill="#0A70FC" opacity="0.67"/><circle cx="460.09" cy="375.42" r="3.67" fill="#0A70FC" opacity="0.87"/><circle cx="631.05" cy="713.38" r="1.2" fill="#0A70FC" opacity="0.54"/><circle cx="840.8" cy="577.96" r="2.98" fill="#0A70FC" opacity="0.42"/><circle cx="871.8" cy="653.52" r="3.23" fill="#0A70FC" opacity="0.53"/><circle cx="576.48" cy="597.85" r="2.79" fill="#0A70FC" opacity="0.62"/><circle cx="841.45" cy="497.49" r="1.62" fill="#0A70FC" opacity="0.55"/><circle cx="568.97" cy="422" r="2.15" fill="#0A70FC" opacity="0.4"/><circle cx="525.12" cy="656.03" r="1.63" fill="#0A70FC" opacity="0.83"/><circle cx="429.51" cy="425.66" r="1.29" fill="#0A70FC" opacity="0.5"/><circle cx="538.45" cy="492.58" r="2.4" fill="#0A70FC" opacity="0.41"/><circle cx="625.65" cy="335.42" r="2.28" fill="#0A70FC" opacity="0.36"/><circle cx="640.01" cy="447.76" r="2.09" fill="#0A70FC" opacity="0.7"/><circle cx="157.83" cy="509.55" r="2.58" fill="#0A70FC" opacity="0.48"/><circle cx="350.11" cy="402.06" r="3.29" fill="#0A70FC" opacity="0.7"/><circle cx="517.63" cy="412.9" r="2.67" fill="#0A70FC" opacity="0.67"/><circle cx="243.61" cy="510.42" r="3.28" fill="#0A70FC" opacity="0.78"/><circle cx="800.23" cy="363.66" r="1.08" fill="#0A70FC" opacity="0.6"/><circle cx="905" cy="319.51" r="3.21" fill="#0A70FC" opacity="0.53"/><circle cx="907.72" cy="524.04" r="1.35" fill="#0A70FC" opacity="0.36"/><circle cx="547.14" cy="669.41" r="1.76" fill="#0A70FC" opacity="0.8"/><circle cx="496.89" cy="488.51" r="3.57" fill="#0A70FC" opacity="0.61"/><circle cx="674.49" cy="591.98" r="1.22" fill="#0A70FC" opacity="0.75"/><circle cx="359.18" cy="433.69" r="1.08" fill="#0A70FC" opacity="0.67"/><circle cx="333" cy="633.74" r="3.23" fill="#0A70FC" opacity="0.41"/><circle cx="689.01" cy="579.4" r="3.43" fill="#0A70FC" opacity="0.63"/><path d="M62 780 C260 740 360 800 520 770 C700 736 820 800 938 760" fill="none" stroke="#0E3A63" stroke-width="1.5" opacity="0.7"/><g stroke-linecap="round" fill="none"><path d="M107.62 800 C98.16 657.21 83.96 571.53 79.23 514.4100000000001" stroke="#049FF3" stroke-width="2.49" opacity="0.85"/><path d="M175.12 800 C178.51 677.75 183.59 604.41 185.28 555.51" stroke="#80B8F8" stroke-width="3.83" opacity="0.85"/><path d="M235.3 800 C232.78 656.78 229 570.85 227.74 513.56" stroke="#80B8F8" stroke-width="3.68" opacity="0.85"/><path d="M288.04 800 C299.82 708.09 317.49 652.94 323.38 616.17" stroke="#049FF3" stroke-width="2.28" opacity="0.85"/><path d="M345.43 800 C353.61 656.79 365.88 570.87 369.97 513.5899999999999" stroke="#80B8F8" stroke-width="2.41" opacity="0.85"/><path d="M399.15 800 C410.54 692.24 427.62 627.58 433.31 584.47" stroke="#80B8F8" stroke-width="3.99" opacity="0.85"/><path d="M463.11 800 C468.59 716.06 476.82 665.7 479.56 632.12" stroke="#049FF3" stroke-width="3.76" opacity="0.85"/><path d="M519.3 800 C519.27 665.6 519.22 584.96 519.2 531.2" stroke="#80B8F8" stroke-width="3.2" opacity="0.85"/><path d="M573.9 800 C582.21 676.48 594.68 602.37 598.84 552.96" stroke="#80B8F8" stroke-width="2.19" opacity="0.85"/><path d="M632.38 800 C641.58 656.67 655.37 570.67 659.97 513.3399999999999" stroke="#049FF3" stroke-width="3.11" opacity="0.85"/><path d="M686.3 800 C682.23 710.37 676.13 656.59 674.1 620.74" stroke="#80B8F8" stroke-width="2.9" opacity="0.85"/><path d="M750.6 800 C754.82 694.72 761.15 631.55 763.26 589.44" stroke="#80B8F8" stroke-width="2.39" opacity="0.85"/><path d="M814.26 800 C824.83 650.92 840.68 561.48 845.96 501.85" stroke="#049FF3" stroke-width="2.46" opacity="0.85"/><path d="M865.58 800 C871.67 693.9 880.81 630.24 883.86 587.8" stroke="#80B8F8" stroke-width="3.71" opacity="0.85"/></g><g fill="#9DB2C6" opacity="0.75"><path d="M620 420 l22 -8 l-22 -8 l6 8 Z"/><path d="M660 440 l22 -8 l-22 -8 l6 8 Z"/><path d="M700 415 l22 -8 l-22 -8 l6 8 Z"/><path d="M680 470 l22 -8 l-22 -8 l6 8 Z"/><path d="M640 460 l22 -8 l-22 -8 l6 8 Z"/></g></g>
  <circle cx="280" cy="360" r="34" fill="none" stroke="#0A70FC" stroke-width="1.5" opacity="0.5"/>
  <circle cx="280" cy="360" r="20" fill="none" stroke="#049FF3" stroke-width="1.5" opacity="0.7"/>
  <circle cx="280" cy="360" r="7" fill="#0A70FC" filter="url(#glow)"/>
  
  <line x1="62" y1="838" x2="938" y2="838" stroke="#0E3A63" stroke-width="1.5"/>
  <text x="62" y="908" font-family="'Space Grotesk', system-ui, -apple-system, 'Segoe UI', Roboto, sans-serif" font-weight="700" font-size="66" fill="#FFFFFF" letter-spacing="-1">Stewardship</text>
  <text x="62" y="946" font-family="'Space Mono', ui-monospace, 'SFMono-Regular', Menlo, monospace" font-size="21" fill="#80B8F8">we steward the oceans · safe · healthy · prosperous</text>
  <text x="62" y="980" font-family="'Space Mono', ui-monospace, 'SFMono-Regular', Menlo, monospace" font-size="16" fill="#9DB2C6" letter-spacing="6" opacity="0.7">U L Y S S E S</text>
  <text x="938" y="980" text-anchor="end" font-family="'Space Mono', ui-monospace, 'SFMono-Regular', Menlo, monospace" font-size="16" fill="#9DB2C6" letter-spacing="2" opacity="0.7">MOODBOARD · 1000²</text>
</svg>
